<svg width="144" height="52" viewBox="0 0 144 52" fill="none" xmlns="http://www.w3.org/2000/svg">
<g clip-path="url(#clip0_1_11)">
<path d="M25.5 38.5C25.1022 38.5 24.7206 38.342 24.4393 38.0607C24.158 37.7794 24 37.3978 24 37V34C24 33.6022 24.158 33.2206 24.4393 32.9393C24.7206 32.658 25.1022 32.5 25.5 32.5H46.5C46.8978 32.5 47.2794 32.658 47.5607 32.9393C47.842 33.2206 48 33.6022 48 34V37C48 37.3978 47.842 37.7794 47.5607 38.0607C47.2794 38.342 46.8978 38.5 46.5 38.5H25.5Z" fill="#FFC634" stroke="black" stroke-width="1.5" stroke-linecap="round" stroke-linejoin="round"/>
<path d="M25.5 32.5C25.1022 32.5 24.7206 32.342 24.4393 32.0607C24.158 31.7794 24 31.3978 24 31V28C24 27.6022 24.158 27.2206 24.4393 26.9393C24.7206 26.658 25.1022 26.5 25.5 26.5H46.5C46.8978 26.5 47.2794 26.658 47.5607 26.9393C47.842 27.2206 48 27.6022 48 28V31C48 31.3978 47.842 31.7794 47.5607 32.0607C47.2794 32.342 46.8978 32.5 46.5 32.5H25.5Z" fill="#D9D9D9" stroke="black" stroke-width="1.5" stroke-linecap="round" stroke-linejoin="round"/>
<path d="M30 38.5V32.5" stroke="black" stroke-width="1.5" stroke-linecap="round" stroke-linejoin="round"/>
<path d="M42 32.5V26.5" stroke="black" stroke-width="1.5" stroke-linecap="round" stroke-linejoin="round"/>
<path d="M24.84 25.2955L24.045 22.0195C23.8425 21.1765 24.33 20.32 25.143 20.0965L45.27 14.554C45.6385 14.4562 46.0302 14.4995 46.3684 14.6754C46.7066 14.8513 46.967 15.1472 47.0985 15.505L47.16 15.7045L47.955 18.9805C48.1575 19.8235 47.67 20.68 46.857 20.9035L26.73 26.446C26.3615 26.5438 25.9698 26.5005 25.6316 26.3246C25.2934 26.1487 25.033 25.8528 24.9015 25.495L24.84 25.2955Z" fill="#A3CAE7" stroke="black" stroke-width="1.5" stroke-linecap="round" stroke-linejoin="round"/>
<path d="M31.5 25L30 19" stroke="black" stroke-width="1.5" stroke-linecap="round" stroke-linejoin="round"/>
<path d="M42 22L40.53 16.1155" stroke="black" stroke-width="1.5" stroke-linecap="round" stroke-linejoin="round"/>
</g>
<path d="M7.38 26.58H10.8L19.8 39H16.02L7.38 26.58ZM2.88 13.8H5.94V39H2.88V13.8ZM4.572 16.5V13.8H9.72C11.352 13.8 12.804 14.112 14.076 14.736C15.372 15.336 16.392 16.2 17.136 17.328C17.904 18.456 18.288 19.8 18.288 21.36C18.288 22.896 17.904 24.24 17.136 25.392C16.392 26.52 15.372 27.396 14.076 28.02C12.804 28.62 11.352 28.92 9.72 28.92H4.572V26.22H9.72C10.8 26.22 11.748 26.028 12.564 25.644C13.404 25.26 14.052 24.708 14.508 23.988C14.988 23.268 15.228 22.392 15.228 21.36C15.228 20.328 14.988 19.452 14.508 18.732C14.052 18.012 13.404 17.46 12.564 17.076C11.748 16.692 10.8 16.5 9.72 16.5H4.572ZM57.8154 31.44L58.8954 28.56H70.0554L71.1354 31.44H57.8154ZM64.4034 19.488L60.1554 29.496L59.8674 30.144L56.1234 39H52.7034L64.4034 12.54L76.1034 39H72.6834L69.0114 30.36L68.7234 29.64L64.4034 19.488ZM79.1691 13.8H82.2291V39H79.1691V13.8ZM86.7291 39H80.8611V35.94H86.7291C88.1451 35.94 89.4411 35.724 90.6171 35.292C91.7931 34.836 92.8011 34.2 93.6411 33.384C94.4811 32.544 95.1291 31.536 95.5851 30.36C96.0411 29.184 96.2691 27.864 96.2691 26.4C96.2691 24.936 96.0411 23.616 95.5851 22.44C95.1291 21.264 94.4811 20.268 93.6411 19.452C92.8011 18.612 91.7931 17.976 90.6171 17.544C89.4411 17.088 88.1451 16.86 86.7291 16.86H80.8611V13.8H86.7291C89.1771 13.8 91.3491 14.328 93.2451 15.384C95.1411 16.44 96.6291 17.916 97.7091 19.812C98.7891 21.684 99.3291 23.88 99.3291 26.4C99.3291 28.92 98.7891 31.128 97.7091 33.024C96.6291 34.896 95.1411 36.36 93.2451 37.416C91.3491 38.472 89.1771 39 86.7291 39ZM103.458 13.8H106.518V30.72C106.518 32.448 106.986 33.84 107.922 34.896C108.858 35.952 110.226 36.48 112.026 36.48C113.826 36.48 115.194 35.952 116.13 34.896C117.066 33.84 117.534 32.448 117.534 30.72V13.8H120.594V30.72C120.594 31.968 120.39 33.12 119.982 34.176C119.598 35.232 119.022 36.144 118.254 36.912C117.51 37.68 116.61 38.28 115.554 38.712C114.498 39.144 113.322 39.36 112.026 39.36C110.73 39.36 109.554 39.144 108.498 38.712C107.442 38.28 106.53 37.68 105.762 36.912C105.018 36.144 104.442 35.232 104.034 34.176C103.65 33.12 103.458 31.968 103.458 30.72V13.8ZM127.109 31.368C127.685 32.376 128.285 33.264 128.909 34.032C129.557 34.8 130.277 35.4 131.069 35.832C131.861 36.264 132.761 36.48 133.769 36.48C135.113 36.48 136.193 36.108 137.009 35.364C137.825 34.62 138.233 33.672 138.233 32.52C138.233 31.392 137.969 30.492 137.441 29.82C136.913 29.148 136.217 28.608 135.353 28.2C134.513 27.768 133.613 27.384 132.653 27.048C132.029 26.832 131.333 26.556 130.565 26.22C129.797 25.86 129.065 25.416 128.369 24.888C127.673 24.336 127.097 23.664 126.641 22.872C126.209 22.08 125.993 21.108 125.993 19.956C125.993 18.708 126.305 17.592 126.929 16.608C127.553 15.624 128.417 14.856 129.521 14.304C130.625 13.728 131.885 13.44 133.301 13.44C134.669 13.44 135.857 13.704 136.865 14.232C137.897 14.736 138.773 15.396 139.493 16.212C140.213 17.004 140.777 17.844 141.185 18.732L138.557 20.244C138.245 19.62 137.849 19.008 137.369 18.408C136.889 17.808 136.301 17.316 135.605 16.932C134.933 16.548 134.105 16.356 133.121 16.356C131.753 16.356 130.757 16.692 130.133 17.364C129.509 18.012 129.197 18.744 129.197 19.56C129.197 20.256 129.377 20.904 129.737 21.504C130.097 22.08 130.697 22.632 131.537 23.16C132.401 23.664 133.565 24.168 135.029 24.672C135.701 24.912 136.409 25.224 137.153 25.608C137.897 25.992 138.581 26.484 139.205 27.084C139.853 27.66 140.381 28.368 140.789 29.208C141.197 30.024 141.401 31.008 141.401 32.16C141.401 33.264 141.185 34.26 140.753 35.148C140.345 36.036 139.769 36.792 139.025 37.416C138.305 38.04 137.477 38.52 136.541 38.856C135.629 39.192 134.669 39.36 133.661 39.36C132.293 39.36 131.021 39.072 129.845 38.496C128.693 37.896 127.673 37.116 126.785 36.156C125.921 35.172 125.213 34.128 124.661 33.024L127.109 31.368Z" fill="black"/>
<defs>
<clipPath id="clip0_1_11">
<rect width="36" height="36" fill="white" transform="matrix(0 -1 1 0 18 46)"/>
</clipPath>
</defs>
</svg>
